<svg width="320" height="320" viewBox="0 0 320 320" fill="none" xmlns="http://www.w3.org/2000/svg">
<path d="M57.0596 198.785L14.4915 226.609C24.4205 248.268 39.0435 267.317 57.0596 282.473V198.785Z" fill="#F16016"/>
<path d="M71.0596 293.011C74.6547 295.419 78.363 297.689 82.1601 299.805V182.389L71.0596 189.644V293.011Z" fill="#F16016"/>
<path d="M202.141 153.271L71.0596 88.561V172.927L96.1529 156.527V306.735C115.712 315.258 137.307 320 160.009 320C174.592 320 188.714 318.037 202.141 314.385V153.271Z" fill="#F16016"/>
<path d="M160.004 0C71.6363 0 0 71.6339 0 159.999C0 178.725 3.23159 196.692 9.13732 213.399L57.0618 182.078V66.0515L216.121 144.577V309.859C276.802 287.125 320 228.611 320 159.991C320 71.6339 248.364 0 160.004 0Z" fill="#F16016"/>
</svg>
